<svg width="1600" height="980" viewBox="0 0 1600 980" fill="none" xmlns="http://www.w3.org/2000/svg">
  <defs>
    <linearGradient id="bg" x1="120" y1="80" x2="1440" y2="900" gradientUnits="userSpaceOnUse">
      <stop stop-color="#0F172A"/>
      <stop offset="1" stop-color="#08111D"/>
    </linearGradient>
    <linearGradient id="hero" x1="290" y1="120" x2="1380" y2="860" gradientUnits="userSpaceOnUse">
      <stop stop-color="#101C2D"/>
      <stop offset="1" stop-color="#0A1421"/>
    </linearGradient>
    <linearGradient id="accent" x1="0" y1="0" x2="1" y2="1">
      <stop stop-color="#2DD4BF"/>
      <stop offset="1" stop-color="#3B82F6"/>
    </linearGradient>
    <filter id="shadow" x="0" y="0" width="1600" height="980" filterUnits="userSpaceOnUse" color-interpolation-filters="sRGB">
      <feDropShadow dx="0" dy="20" stdDeviation="30" flood-color="#020617" flood-opacity="0.38"/>
    </filter>
  </defs>

  <rect width="1600" height="980" rx="36" fill="url(#bg)"/>
  <rect x="30" y="30" width="1540" height="920" rx="32" fill="#07101A" stroke="#162334"/>

  <g filter="url(#shadow)">
    <rect x="84" y="86" width="1432" height="808" rx="28" fill="url(#hero)" stroke="#1E2C40"/>
  </g>

  <rect x="84" y="86" width="300" height="808" rx="28" fill="#0B1624"/>
  <rect x="108" y="112" width="48" height="48" rx="16" fill="url(#accent)"/>
  <path d="M123 128H137L144 138L151 128H166V136H156L147 148V175H140V148L131 136H123V128Z" fill="#062A2B"/>
  <path d="M123 166H133M156 166H166M166 136V166M123 136V166" stroke="#D9FBFF" stroke-width="4" stroke-linecap="round"/>
  <circle cx="123" cy="166" r="4" fill="#D9FBFF"/>
  <circle cx="166" cy="166" r="4" fill="#D9FBFF"/>
  <circle cx="123" cy="136" r="4" fill="#B8FFF3"/>
  <circle cx="166" cy="136" r="4" fill="#B8FFF3"/>

  <text x="172" y="132" fill="#F8FAFC" font-family="Inter, Segoe UI, Arial, sans-serif" font-size="20" font-weight="700">MTProxy Control</text>
  <text x="172" y="156" fill="#7C93B0" font-family="Inter, Segoe UI, Arial, sans-serif" font-size="12">Local-first operator workspace</text>

  <rect x="108" y="196" width="252" height="114" rx="18" fill="#101C2D" stroke="#223349"/>
  <text x="130" y="226" fill="#E2E8F0" font-family="Inter, Segoe UI, Arial, sans-serif" font-size="14" font-weight="700">Workflow</text>
  <rect x="130" y="240" width="208" height="24" rx="12" fill="#15263A" stroke="#2C425F"/>
  <text x="144" y="257" fill="#DCEAFE" font-family="Inter, Segoe UI, Arial, sans-serif" font-size="12">1. Add server and SSH access</text>
  <rect x="130" y="272" width="208" height="24" rx="12" fill="#15263A" stroke="#2C425F"/>
  <text x="144" y="289" fill="#DCEAFE" font-family="Inter, Segoe UI, Arial, sans-serif" font-size="12">2. Diagnose DNS and port 443</text>

  <rect x="108" y="330" width="252" height="160" rx="18" fill="#101C2D" stroke="#223349"/>
  <text x="130" y="360" fill="#E2E8F0" font-family="Inter, Segoe UI, Arial, sans-serif" font-size="14" font-weight="700">Server Inventory</text>

  <rect x="130" y="376" width="208" height="30" rx="12" fill="#142236" stroke="#27415F"/>
  <circle cx="148" cy="391" r="5" fill="#22C55E"/>
  <text x="162" y="395" fill="#F8FAFC" font-family="Inter, Segoe UI, Arial, sans-serif" font-size="12" font-weight="700">ams-01</text>
  <text x="250" y="395" fill="#8FB4DF" font-family="Inter, Segoe UI, Arial, sans-serif" font-size="11">online</text>

  <rect x="130" y="416" width="208" height="30" rx="12" fill="#142236" stroke="#27415F"/>
  <circle cx="148" cy="431" r="5" fill="#F59E0B"/>
  <text x="162" y="435" fill="#F8FAFC" font-family="Inter, Segoe UI, Arial, sans-serif" font-size="12" font-weight="700">fra-02</text>
  <text x="240" y="435" fill="#8FB4DF" font-family="Inter, Segoe UI, Arial, sans-serif" font-size="11">degraded</text>

  <rect x="130" y="456" width="208" height="30" rx="12" fill="#142236" stroke="#27415F"/>
  <circle cx="148" cy="471" r="5" fill="#38BDF8"/>
  <text x="162" y="475" fill="#F8FAFC" font-family="Inter, Segoe UI, Arial, sans-serif" font-size="12" font-weight="700">hel-03</text>
  <text x="245" y="475" fill="#8FB4DF" font-family="Inter, Segoe UI, Arial, sans-serif" font-size="11">draft</text>

  <rect x="108" y="510" width="252" height="186" rx="18" fill="#101C2D" stroke="#223349"/>
  <text x="130" y="540" fill="#E2E8F0" font-family="Inter, Segoe UI, Arial, sans-serif" font-size="14" font-weight="700">Safety Defaults</text>
  <text x="130" y="570" fill="#AFC4DE" font-family="Inter, Segoe UI, Arial, sans-serif" font-size="12">- No agent required on managed hosts</text>
  <text x="130" y="596" fill="#AFC4DE" font-family="Inter, Segoe UI, Arial, sans-serif" font-size="12">- Port 443 conflicts surfaced before deploy</text>
  <text x="130" y="622" fill="#AFC4DE" font-family="Inter, Segoe UI, Arial, sans-serif" font-size="12">- Remote config replacement should keep backups</text>
  <text x="130" y="648" fill="#AFC4DE" font-family="Inter, Segoe UI, Arial, sans-serif" font-size="12">- Alerts are state-change based</text>

  <text x="430" y="156" fill="#F8FAFC" font-family="Inter, Segoe UI, Arial, sans-serif" font-size="34" font-weight="700">Operate MTProto infrastructure without blind deploys</text>
  <text x="430" y="194" fill="#97ADC8" font-family="Inter, Segoe UI, Arial, sans-serif" font-size="16">Diagnostics, Telemt config, deploy preview, logs, health history, and Telegram alerts in one dense operator panel.</text>

  <rect x="430" y="228" width="184" height="34" rx="17" fill="#12324C" stroke="#235B86"/>
  <text x="454" y="250" fill="#D8EEFF" font-family="Inter, Segoe UI, Arial, sans-serif" font-size="13" font-weight="700">React UI + Go API</text>
  <rect x="630" y="228" width="150" height="34" rx="17" fill="#113126" stroke="#1E6A4B"/>
  <text x="653" y="250" fill="#DDFBEF" font-family="Inter, Segoe UI, Arial, sans-serif" font-size="13" font-weight="700">SQLite local-first</text>
  <rect x="796" y="228" width="170" height="34" rx="17" fill="#1A2238" stroke="#384A73"/>
  <text x="821" y="250" fill="#E2E8F0" font-family="Inter, Segoe UI, Arial, sans-serif" font-size="13" font-weight="700">SSH orchestration</text>

  <rect x="430" y="290" width="496" height="228" rx="22" fill="#0D1724" stroke="#223349"/>
  <text x="458" y="326" fill="#F8FAFC" font-family="Inter, Segoe UI, Arial, sans-serif" font-size="18" font-weight="700">Diagnostics</text>
  <text x="458" y="350" fill="#7DD3FC" font-family="Inter, Segoe UI, Arial, sans-serif" font-size="12">pre-deploy checks</text>

  <rect x="458" y="372" width="210" height="42" rx="14" fill="#122133" stroke="#29415E"/>
  <circle cx="482" cy="393" r="8" fill="#22C55E"/>
  <text x="500" y="390" fill="#E7F6EE" font-family="Inter, Segoe UI, Arial, sans-serif" font-size="13" font-weight="700">SSH reachable</text>
  <text x="500" y="407" fill="#90A6C1" font-family="Inter, Segoe UI, Arial, sans-serif" font-size="11">operator@ams-01:22</text>

  <rect x="458" y="426" width="210" height="42" rx="14" fill="#122133" stroke="#29415E"/>
  <circle cx="482" cy="447" r="8" fill="#22C55E"/>
  <text x="500" y="444" fill="#E7F6EE" font-family="Inter, Segoe UI, Arial, sans-serif" font-size="13" font-weight="700">Docker installed</text>
  <text x="500" y="461" fill="#90A6C1" font-family="Inter, Segoe UI, Arial, sans-serif" font-size="11">docker compose available</text>

  <rect x="686" y="372" width="212" height="42" rx="14" fill="#1F1D14" stroke="#5A4B1C"/>
  <circle cx="710" cy="393" r="8" fill="#F59E0B"/>
  <text x="728" y="390" fill="#FEF3C7" font-family="Inter, Segoe UI, Arial, sans-serif" font-size="13" font-weight="700">Port 443 owned by HAProxy</text>
  <text x="728" y="407" fill="#C3B68D" font-family="Inter, Segoe UI, Arial, sans-serif" font-size="11">safe routing decision required</text>

  <rect x="686" y="426" width="212" height="42" rx="14" fill="#122133" stroke="#29415E"/>
  <circle cx="710" cy="447" r="8" fill="#38BDF8"/>
  <text x="728" y="444" fill="#E0F2FE" font-family="Inter, Segoe UI, Arial, sans-serif" font-size="13" font-weight="700">Telemt API detected</text>
  <text x="728" y="461" fill="#90A6C1" font-family="Inter, Segoe UI, Arial, sans-serif" font-size="11">127.0.0.1:9091</text>

  <rect x="950" y="290" width="516" height="228" rx="22" fill="#0D1724" stroke="#223349"/>
  <text x="978" y="326" fill="#F8FAFC" font-family="Inter, Segoe UI, Arial, sans-serif" font-size="18" font-weight="700">Deploy Preview</text>
  <text x="978" y="350" fill="#7DD3FC" font-family="Inter, Segoe UI, Arial, sans-serif" font-size="12">review before apply</text>

  <rect x="978" y="372" width="460" height="118" rx="16" fill="#08111B" stroke="#1F3045"/>
  <text x="1000" y="402" fill="#AFC4DE" font-family="SFMono-Regular, Menlo, Consolas, monospace" font-size="12">remote_base_path: /opt/mtproto-panel/telemt</text>
  <text x="1000" y="428" fill="#B8FFF3" font-family="SFMono-Regular, Menlo, Consolas, monospace" font-size="12">+ config.toml updated with tls_domain = &quot;mt.example.com&quot;</text>
  <text x="1000" y="454" fill="#B8FFF3" font-family="SFMono-Regular, Menlo, Consolas, monospace" font-size="12">+ docker-compose.yml references ghcr.io/telemt/telemt:latest</text>
  <text x="1000" y="480" fill="#FDE68A" font-family="SFMono-Regular, Menlo, Consolas, monospace" font-size="12">! existing listener on public 443 must keep Jitsi route intact</text>

  <rect x="978" y="438" width="162" height="34" rx="17" fill="#103A2F" stroke="#1E7F61"/>
  <text x="1008" y="460" fill="#DDFBEF" font-family="Inter, Segoe UI, Arial, sans-serif" font-size="13" font-weight="700">backup previous config</text>

  <rect x="430" y="546" width="628" height="298" rx="22" fill="#0D1724" stroke="#223349"/>
  <text x="458" y="582" fill="#F8FAFC" font-family="Inter, Segoe UI, Arial, sans-serif" font-size="18" font-weight="700">Live Logs</text>
  <text x="458" y="606" fill="#7DD3FC" font-family="Inter, Segoe UI, Arial, sans-serif" font-size="12">SSE stream</text>

  <rect x="458" y="626" width="572" height="190" rx="16" fill="#050C14" stroke="#1B2B40"/>
  <text x="484" y="660" fill="#7EE787" font-family="SFMono-Regular, Menlo, Consolas, monospace" font-size="13">[11:32:04] telemt-mtproto  | generated link for mt.example.com:443</text>
  <text x="484" y="692" fill="#93C5FD" font-family="SFMono-Regular, Menlo, Consolas, monospace" font-size="13">[11:32:08] health worker    | tcp ok, latency 118ms</text>
  <text x="484" y="724" fill="#FDE68A" font-family="SFMono-Regular, Menlo, Consolas, monospace" font-size="13">[11:32:12] diagnostics      | public 443 routed by haproxy</text>
  <text x="484" y="756" fill="#D8B4FE" font-family="SFMono-Regular, Menlo, Consolas, monospace" font-size="13">[11:32:16] deploy preview   | config backup saved to backups/</text>

  <rect x="1084" y="546" width="382" height="298" rx="22" fill="#0D1724" stroke="#223349"/>
  <text x="1112" y="582" fill="#F8FAFC" font-family="Inter, Segoe UI, Arial, sans-serif" font-size="18" font-weight="700">Health and Alerts</text>
  <text x="1112" y="606" fill="#7DD3FC" font-family="Inter, Segoe UI, Arial, sans-serif" font-size="12">real reachability checks</text>

  <rect x="1112" y="630" width="326" height="92" rx="16" fill="#101B2A" stroke="#223349"/>
  <text x="1134" y="660" fill="#E2E8F0" font-family="Inter, Segoe UI, Arial, sans-serif" font-size="14" font-weight="700">Current status</text>
  <rect x="1288" y="644" width="118" height="28" rx="14" fill="#103A2F" stroke="#1E7F61"/>
  <text x="1323" y="662" fill="#DDFBEF" font-family="Inter, Segoe UI, Arial, sans-serif" font-size="12" font-weight="700">online</text>
  <text x="1134" y="690" fill="#9DB2CE" font-family="Inter, Segoe UI, Arial, sans-serif" font-size="12">TCP ok, Telemt API ok, Docker ok, last check 11:32</text>

  <rect x="1112" y="738" width="326" height="78" rx="16" fill="#101B2A" stroke="#223349"/>
  <text x="1134" y="768" fill="#E2E8F0" font-family="Inter, Segoe UI, Arial, sans-serif" font-size="14" font-weight="700">Telegram alerts</text>
  <text x="1134" y="796" fill="#9DB2CE" font-family="Inter, Segoe UI, Arial, sans-serif" font-size="12">Notify only on down, degraded, and recovery state changes.</text>
</svg>
